<svg xmlns="http://www.w3.org/2000/svg" viewBox="0 0 302.2 106"><defs><style>.cls-1{fill:#ff2600;}.cls-2{fill:#fff;}.cls-3{fill:#162769;}</style></defs><g id="Слой_2" data-name="Слой 2"><g id="Logo_vector" data-name="Logo vector"><polyline class="cls-1" points="106 106 106 0 0 0 0 106"/><path class="cls-2" d="M48.55,38.31H38.35V36a10.9,10.9,0,0,0-1.65-6q-1.65-2.55-5.55-2.55a6.46,6.46,0,0,0-3.4.8,6.71,6.71,0,0,0-2.1,2,8.55,8.55,0,0,0-1.1,2.95,19.26,19.26,0,0,0-.3,3.45,33.77,33.77,0,0,0,.15,3.5,6.59,6.59,0,0,0,.75,2.5,5.44,5.44,0,0,0,1.75,1.9,15.73,15.73,0,0,0,3.15,1.6l7.8,3.1a19.54,19.54,0,0,1,5.5,3,13.26,13.26,0,0,1,3.3,4.05,19.18,19.18,0,0,1,1.5,5.45,53.41,53.41,0,0,1,.4,6.95,36.61,36.61,0,0,1-.9,8.35,17.62,17.62,0,0,1-2.9,6.55,14.28,14.28,0,0,1-5.5,4.4,19.35,19.35,0,0,1-8.3,1.6,18.07,18.07,0,0,1-6.9-1.3,16.21,16.21,0,0,1-5.5-3.6,17.46,17.46,0,0,1-3.65-5.35,16.23,16.23,0,0,1-1.35-6.65v-3.8h10.2v3.2a8.32,8.32,0,0,0,1.65,5q1.65,2.25,5.55,2.25A9,9,0,0,0,35,78.66a5.31,5.31,0,0,0,2.25-2.15,7.93,7.93,0,0,0,1-3.35q.15-1.95.15-4.35a44.1,44.1,0,0,0-.2-4.6,7.89,7.89,0,0,0-.8-2.9,5.69,5.69,0,0,0-1.85-1.8,25.6,25.6,0,0,0-3-1.5l-7.3-3q-6.6-2.7-8.85-7.15a24.57,24.57,0,0,1-2.25-11.15,26,26,0,0,1,1.1-7.6,17.24,17.24,0,0,1,3.3-6.2,15.21,15.21,0,0,1,5.35-4.15,17.92,17.92,0,0,1,7.75-1.55,17,17,0,0,1,7,1.4A18,18,0,0,1,44,22.31a15.44,15.44,0,0,1,4.6,11Z"/><path class="cls-2" d="M55.55,34.61a18.21,18.21,0,0,1,1.5-7.6,16,16,0,0,1,4-5.5,17.07,17.07,0,0,1,5.45-3.2,17.74,17.74,0,0,1,12.3,0,18.34,18.34,0,0,1,5.55,3.2,16.78,16.78,0,0,1,3.9,5.5,18.21,18.21,0,0,1,1.5,7.6v37.6a16.57,16.57,0,0,1-1.5,7.3l6.3,5.1-5.2,6.2-6-4.9a16.55,16.55,0,0,1-10.7,3.7,17.83,17.83,0,0,1-6.15-1.1,16,16,0,0,1-5.45-3.3,15.17,15.17,0,0,1-4-5.3,18,18,0,0,1-1.5-7.7Zm10.2,37.6q0,3.71,2,5.45a7.21,7.21,0,0,0,4.85,1.75,4.94,4.94,0,0,0,2.2-.4l-4.6-3.7,5.2-6.2,4.1,3.3V34.61q0-3.69-2-5.45a7.6,7.6,0,0,0-9.7,0q-2.05,1.75-2,5.45Z"/><path class="cls-3" d="M145.9,29.31V80H135.7v-4.9h-.2a14.36,14.36,0,0,1-3.85,4,9.88,9.88,0,0,1-5.75,1.55,11.5,11.5,0,0,1-3.8-.65,8.73,8.73,0,0,1-3.4-2.15A10.8,10.8,0,0,1,116.3,74a16.11,16.11,0,0,1-.9-5.75V29.31h10.2v35.1a6.81,6.81,0,0,0,1.3,4.4,4.49,4.49,0,0,0,3.7,1.6c1.94,0,3.27-.6,4-1.8a10.08,10.08,0,0,0,1.1-5.2V29.31Z"/><path class="cls-3" d="M171.6,80v-5.2h-.2a18.6,18.6,0,0,1-4.05,4.3,9.59,9.59,0,0,1-5.75,1.5,12.63,12.63,0,0,1-3.65-.55,9.37,9.37,0,0,1-3.55-2A9.76,9.76,0,0,1,151.65,74a18.82,18.82,0,0,1-1.05-6.85,36,36,0,0,1,.7-7.55,12.1,12.1,0,0,1,2.6-5.45A10.86,10.86,0,0,1,158.8,51a25,25,0,0,1,7.9-1.05h1.1a6.15,6.15,0,0,1,1.1.1,5.91,5.91,0,0,0,1.2.1,13.48,13.48,0,0,1,1.5.1v-5.3a7.82,7.82,0,0,0-1.1-4.3c-.73-1.13-2.07-1.7-4-1.7a5.8,5.8,0,0,0-3.65,1.3A6.18,6.18,0,0,0,160.7,44h-9.9a16.33,16.33,0,0,1,4.6-11,14.51,14.51,0,0,1,4.8-3.15,16.6,16.6,0,0,1,6.3-1.15,17.9,17.9,0,0,1,6,1,13.76,13.76,0,0,1,4.9,3,14.78,14.78,0,0,1,3.2,5,18.8,18.8,0,0,1,1.2,7V80Zm0-21.8a16.74,16.74,0,0,0-2.8-.3,10.06,10.06,0,0,0-5.65,1.55Q160.8,61,160.8,65.11a7.45,7.45,0,0,0,1.4,4.7,4.65,4.65,0,0,0,3.9,1.8,5,5,0,0,0,4.05-1.7,7.15,7.15,0,0,0,1.45-4.8Z"/><path class="cls-3" d="M189.3,80V29.31h10.2v5.4a31.47,31.47,0,0,1,6.1-4.4,15.66,15.66,0,0,1,7.4-1.6v10.8a8.26,8.26,0,0,0-3.1-.6,12.35,12.35,0,0,0-3.45.55,9.14,9.14,0,0,0-3.35,1.85,9.66,9.66,0,0,0-2.6,3.4,12,12,0,0,0-1,5.2V80Z"/><path class="cls-3" d="M219.1,19V8.81h10.2V19Zm0,61V29.31h10.2V80Z"/><path class="cls-3" d="M246.5,65.41a4.89,4.89,0,0,0,1.35,3.7,5,5,0,0,0,3.65,1.3c1.93,0,3.22-.56,3.85-1.7a9.09,9.09,0,0,0,1.15-3.4h10.2a14.6,14.6,0,0,1-4.1,10.8,14.28,14.28,0,0,1-4.8,3.3,15.87,15.87,0,0,1-6.3,1.2,15.56,15.56,0,0,1-8.15-2,13.55,13.55,0,0,1-6.65-9.9,37.12,37.12,0,0,1-.4-5.7V46.31a37.3,37.3,0,0,1,.4-5.7,14.07,14.07,0,0,1,1.5-4.6,13.85,13.85,0,0,1,5.15-5.3,15.65,15.65,0,0,1,8.15-2,16.22,16.22,0,0,1,6.35,1.2,14.19,14.19,0,0,1,4.85,3.3q4,4.5,4,11.7H256.5a6.53,6.53,0,0,0-1.35-4.55,5.32,5.32,0,0,0-7.3,0,6.19,6.19,0,0,0-1.35,4.35Z"/><path class="cls-3" d="M271.8,46.31a37.3,37.3,0,0,1,.4-5.7,14.07,14.07,0,0,1,1.5-4.6,13.85,13.85,0,0,1,5.15-5.3,17.61,17.61,0,0,1,16.3,0A13.85,13.85,0,0,1,300.3,36a14.07,14.07,0,0,1,1.5,4.6,38.62,38.62,0,0,1,.4,5.7V63a38.42,38.42,0,0,1-.4,5.7,13.55,13.55,0,0,1-6.65,9.9,17.61,17.61,0,0,1-16.3,0,13.55,13.55,0,0,1-6.65-9.9,37.12,37.12,0,0,1-.4-5.7ZM282,64.61A6.16,6.16,0,0,0,283.35,69a5.32,5.32,0,0,0,7.3,0A6.16,6.16,0,0,0,292,64.61V44.71a6.19,6.19,0,0,0-1.35-4.35,5.32,5.32,0,0,0-7.3,0A6.19,6.19,0,0,0,282,44.71Z"/></g></g></svg>